<!--?xml version="1.0" standalone="no"?-->
              <svg id="sw-js-blob-svg" viewBox="0 0 100 100" xmlns="http://www.w3.org/2000/svg" version="1.1">
                    <defs> 
                        <linearGradient id="sw-gradient" x1="0" x2="1" y1="1" y2="0">
                            <stop id="stop1" stop-color="rgba(248, 117, 55, 1)" offset="0%"></stop>
                            <stop id="stop2" stop-color="rgba(251, 168, 31, 1)" offset="100%"></stop>
                        </linearGradient>
                    </defs>
                <path fill="url(#sw-gradient)" d="M13.4,-18.2C18.2,-14.9,23.5,-12.2,26.8,-7.4C30.1,-2.7,31.5,4,30.9,11.4C30.4,18.8,28,27,22.5,28.5C17,30.1,8.5,25,2.2,22C-4.1,19,-8.2,18,-15.6,17C-23,16.1,-33.7,15.3,-36.9,10.7C-40.1,6.2,-35.9,-2.1,-31.4,-8.4C-26.9,-14.8,-22,-19.2,-16.8,-22.4C-11.5,-25.5,-5.7,-27.3,-0.7,-26.3C4.3,-25.3,8.6,-21.5,13.4,-18.2Z" width="100%" height="100%" transform="translate(50 50)" stroke-width="0" style="transition: all 0.3s ease 0s;"></path>
              </svg>